<?xml version="1.0" encoding="utf-8"?>
<!DOCTYPE svg PUBLIC "-//W3C//DTD SVG 1.1//EN" "http://www.w3.org/Graphics/SVG/1.1/DTD/svg11.dtd">
<!-- exported from Silhouette Studio® Business Edition V4.5.152ssbe -->
<svg version="1.1" xmlns="http://www.w3.org/2000/svg" xmlns:xlink="http://www.w3.org/1999/xlink" width="304.8mm" height="304.8mm" viewBox="0 0 304.8 304.8">
<defs>
<path id="path_5565f1fd71098225d90241007d58f433" d="M 112.2439 173.5414 C 112.374 173.2898 112.5783 172.8918 112.585 172.8786 C 112.5986 172.8519 113.1766 171.7052 113.2577 171.5454 C 114.5807 168.9378 116.0901 166.2866 115.3974 164.9205 C 115.0346 164.205 114.4631 163.9526 114.8087 163.1035 C 114.9044 162.8683 115.5766 161.6913 116.8414 161.582 C 117.8582 161.4941 121.2362 162.1166 125.3124 162.3454 C 131.4059 162.6874 129.2336 161.7703 134.257 161.6057 C 134.6119 161.5941 135.6122 161.5708 135.8704 161.562 C 136.9251 161.5262 136.9711 161.4931 137.04 161.4794 C 137.615 160.4529 138.2096 158.351 138.0891 158.1819 C 137.6183 158.0101 134.412 158.168 133.1053 157.6567 C 128.5104 155.8589 130.5439 157.4341 128.348 156.0086 C 125.0699 153.8805 124.7396 153.1584 123.8523 152.4277 C 120.9421 150.031 123.5775 152.8075 120.5644 149.2139 C 119.5734 148.032 119.6194 147.8039 118.4924 145.9619 C 115.3704 140.8592 116.2325 140.4216 115.939 139.8253 C 115.7862 139.5149 114.7315 139.0046 114.5486 137.783 C 114.1513 135.1287 113.7299 136.0593 113.2188 132.7958 C 112.6607 129.2327 113.4564 126.7916 114.6884 124.3354 L 115.8244 122.0695 C 117.5973 118.5348 116.758 119.575 117.2733 118.3035 C 117.8019 118.5088 117.9387 118.5288 118.045 118.4611 C 118.4135 118.2267 118.0225 116.5518 118.7479 116.3936 C 119.1853 116.559 118.6872 116.43 119.1403 116.5764 C 119.3564 116.1553 119.6811 114.4594 120.2016 113.815 C 120.4759 114.2074 120.1946 114.5353 120.5468 115.0993 C 121.4694 114.3629 121.1966 113.0585 121.9678 112.3369 C 122.3257 112.4776 122.076 112.4569 122.4586 112.6834 C 122.727 112.7281 122.6185 112.7128 122.7824 112.674 C 123.2093 112.0405 122.6188 112.3351 123.5008 110.9044 C 123.9261 110.2147 124.224 110.2905 124.2432 110.2885 C 124.4565 110.6269 124.2052 110.7827 124.549 111.1904 C 124.9723 111.0108 126.2117 108.1836 126.8196 108.1037 C 127.1558 108.0595 127.0203 108.4763 127.444 108.7412 C 128.0948 108.415 128.7673 107.5104 129.6349 107.3417 C 130.0926 107.4399 129.8934 107.4857 130.3529 107.575 C 131.0009 107.3494 131.3716 106.5989 131.8383 106.5488 C 132.0263 106.5286 132.2031 106.6993 132.5789 106.8169 C 133.241 106.5908 133.0457 106.4087 134.0292 105.9975 C 134.2036 106.168 134.4127 106.4252 134.6713 106.4081 C 135.247 106.3702 134.5377 106.2095 136.2482 105.534 C 136.5049 105.8622 136.495 105.9536 136.5954 106.0175 C 136.7101 106.0906 136.9652 106.0461 136.9722 106.0432 C 137.292 105.9098 137.7487 105.2325 138.2499 105.3706 C 138.4828 105.4347 138.6429 105.7405 138.7565 105.7545 C 138.9345 105.7765 139.5692 105.135 139.8456 105.079 C 139.8473 105.0786 139.9207 105.0769 139.9351 105.0775 C 139.943 105.0779 140.0997 105.109 140.129 105.1214 C 140.2622 105.178 140.1481 105.1329 140.2453 105.198 C 140.241 105.6553 140.186 105.2159 140.2176 105.6369 C 140.7506 105.6605 142.1819 104.5154 142.4993 104.8151 C 142.6885 104.9937 142.3042 105.3565 142.3366 105.6671 C 142.8323 105.706 143.7997 104.8851 144.1817 104.7244 C 144.6668 104.5203 144.7963 104.9016 144.9547 104.9204 C 144.9774 104.9231 145.9508 104.5744 146.0581 104.6143 C 146.1628 104.6531 146.236 104.7897 146.3988 105.0566 C 146.5321 105.0485 146.6899 105.0478 146.8062 104.9666 C 146.9178 104.8887 147.0922 104.4901 147.5255 104.0905 C 147.8331 104.3957 147.574 104.2203 147.8976 104.5426 C 147.9837 104.5018 147.8575 104.5988 148.5803 104.136 C 149.0157 104.4016 148.9582 104.3478 149.0021 104.3675 C 149.2387 104.0757 149.3643 103.5902 149.6713 103.7739 C 149.7836 103.8411 149.7211 104.0598 149.8797 104.1259 C 150.145 104.2366 150.1542 103.8267 150.4406 103.493 C 150.7391 103.7482 150.6077 104.0327 150.758 104.1474 C 151.2202 104.5 151.6649 103.2009 151.917 103.2708 C 152.1422 103.3333 151.9656 104.1689 152.2375 104.1903 C 152.4388 104.2063 152.3755 103.7211 152.9767 103.6465 C 153.1514 103.9342 153.1838 104.1847 153.2821 104.2173 C 153.5018 104.2905 153.945 103.6452 154.0919 103.6929 C 154.2738 103.7519 153.9958 104.0487 154.4014 104.3018 C 154.9376 104.2146 156.3598 102.8698 156.6457 103.2725 C 156.778 103.4586 156.3745 103.7431 156.5642 104.2206 C 157.1209 104.174 158.251 102.7625 158.516 102.9521 C 158.8437 103.1868 158.0568 103.7805 158.3912 104.0055 C 158.6237 104.162 160.4052 102.1051 160.8314 102.6257 C 160.9547 102.7764 160.668 103.0641 160.97 103.4249 C 161.9609 102.9582 161.8427 102.5123 162.347 102.6818 C 162.3891 103.0342 162.2847 102.7587 162.3979 103.3624 C 163.18 102.9635 163.3401 102.5341 163.9438 102.385 C 164.1535 102.8216 164.0516 102.7148 164.2362 102.9328 C 164.8064 102.6489 164.8532 102.0428 165.316 102.1613 C 165.5531 102.222 165.5866 102.5006 165.7249 102.5016 C 165.9004 102.5029 166.3759 101.6843 166.8996 101.6304 C 168.6914 101.446 170.9131 99.5614 171.2927 99.23544 C 172.775 97.96249 174.209 96.86081 174.9897 93.31717 C 175.3925 91.48883 177.0796 86.90921 171.5199 80.4025 C 169.8542 78.45312 165.0328 74.97147 160.1956 74.39209 C 157.0139 74.01102 153.4444 74.45758 147.2171 77.5278 C 147.165 77.5535 145.9432 78.16287 145.9173 78.17584 C 143.5434 79.36856 143.4394 79.46375 143.0809 79.7417 C 143.5126 80.44046 143.4869 80.11118 144.2204 80.41742 C 144.2862 80.48654 144.3426 80.47983 144.4282 80.79819 C 143.7177 82.7684 139.3359 81.19147 134.1754 82.92993 C 129.9263 84.36136 129.5163 84.35168 128.587 85.67755 C 127.3073 87.5032 126.9442 86.28372 124.1631 87.65756 C 122.54 88.45938 121.458 89.51355 120.594 90.44067 C 118.5048 92.68253 118.5282 93.41296 118.2379 93.34149 C 117.8404 93.24368 118.15 89.97391 120.7657 87.00488 C 121.6249 86.02963 123.0591 84.401 128.2541 81.51736 C 129.2539 80.96237 130.6217 80.14731 134.7491 78.53452 C 137.2375 77.56213 139.5157 75.70764 140.4016 75.61703 C 141.0592 75.80887 141.182 76.85199 141.6635 76.65048 C 142.0324 76.49619 141.84 75.57727 142.7978 74.42343 C 143.3929 74.97784 143.2899 75.39105 143.5349 75.45874 C 144.3115 75.67322 143.4135 73.16403 144.6248 72.79559 C 144.7966 73.13956 144.8797 73.61383 144.9872 73.63623 C 145.6483 73.7735 145.2387 71.31232 146.0282 71.80084 C 146.3335 71.98981 146.0526 73.09402 146.7619 72.74643 C 146.898 72.24707 146.8993 71.01828 147.1195 70.78812 C 147.25 70.65155 147.4912 70.61835 147.5208 70.63577 C 147.6499 70.71164 147.6815 71.7179 147.875 71.83188 C 148.6514 72.28928 148.1512 69.70056 148.6017 69.69965 C 148.8551 69.6991 148.9886 72.00842 149.3809 72.11093 C 150.2223 72.33087 149.5503 67.87314 150.4198 67.88889 C 150.7835 67.89545 150.8166 70.66403 151.138 70.83441 C 151.183 70.85828 151.1819 70.88443 151.5491 70.72787 C 151.5294 68.99066 151.5742 67.43521 151.907 67.4061 C 152.7475 67.33264 151.9386 70.0723 153.0044 69.99536 C 153.3297 69.42374 153.0745 67.54193 153.316 66.72174 C 153.44 66.73935 153.634 66.76901 153.7166 66.83963 C 153.9653 67.0527 154.4248 69.94846 154.8809 69.90118 C 155.0602 69.88257 155.0411 69.73776 155.1542 68.11929 C 155.1949 67.53598 155.381 66.03964 155.5631 65.90775 C 155.6271 65.86142 155.7016 65.86337 155.954 65.85129 C 156.0233 66.41428 156.2306 68.90787 157.0167 69.23352 C 157.3875 68.67477 156.862 65.27032 157.7036 65.57208 C 157.9215 65.65024 157.8025 68.35815 158.0796 68.44135 C 158.7392 68.63928 158.3689 66.203 159.1854 65.18066 C 159.5974 65.44565 159.5097 69.07095 159.8968 69.20053 C 160.4407 69.38245 160.5811 65.28662 160.9893 65.25275 C 161.2505 65.23105 161.2664 65.99213 161.2727 66.07935 C 161.2769 66.13754 161.3623 67.50659 161.3643 67.53571 C 161.4239 68.39526 161.6072 70.07355 162.1012 69.96039 C 162.4524 69.87985 161.9446 69.67972 162.6435 67.00757 C 162.9913 65.67755 163.4219 65.39856 163.5582 65.44702 C 163.7254 65.50647 163.6053 65.91986 163.5946 68.4032 C 163.5881 69.91986 163.7163 70.06326 163.8848 70.0632 C 164.4707 70.0629 164.6751 66.3757 165.3991 66.72913 C 165.5984 66.82651 165.2754 70.31985 165.6316 70.41882 C 166.0089 70.52362 166.4586 68.3913 167.1739 67.54312 C 167.359 67.5553 167.4866 67.59277 167.5313 67.64227 C 167.7021 67.83109 167.4573 68.40314 167.4024 69.75961 C 167.3618 70.76175 167.3929 71.17529 167.5474 71.27228 C 167.6596 71.3428 167.9166 71.28329 167.9605 71.24539 C 168.2153 71.0257 168.6663 68.58453 169.1034 68.68524 C 169.4366 68.76202 168.705 72.14059 169.387 72.09207 C 169.7889 72.06351 169.804 70.10785 170.5096 69.83798 C 170.7066 70.4476 170.4657 72.61877 170.7949 72.73599 C 171.3723 72.94156 171.3018 70.71671 171.94 70.87076 C 172.243 70.94388 171.6831 73.16595 172.2987 73.06793 C 172.4832 73.03854 172.7338 71.90836 173.0249 71.94772 C 173.2299 71.97549 173.211 75.31317 173.7628 75.31665 C 174.0243 75.3183 174.2464 74.16501 174.475 74.22049 C 174.7297 74.28226 174.5829 76.71741 174.8251 76.81744 C 175.2519 76.99368 175.4537 75.33868 175.5718 75.20599 C 175.6862 75.07742 175.9055 75.03119 175.9266 75.04156 C 176.334 75.24319 175.4431 75.42532 177.2926 80.55835 C 178.8702 84.93695 178.8243 84.95325 178.8568 85.04245 C 179.7709 87.54132 180.2913 94.38776 178.7642 97.1366 C 177.6591 99.12564 178.5587 100.3478 171.8503 104.8288 C 170.432 105.7762 171.1294 104.869 167.5452 106.8066 C 164.0181 108.7134 160.66 108.7907 160.5214 109.2141 C 160.3799 109.6464 161.2909 109.7477 164.3787 113.3917 C 167.8318 117.4666 167.2929 117.5917 167.8228 117.7614 C 168.1028 117.851 168.4358 117.6851 170.5296 116.6136 C 171.9785 115.872 173.1539 116.0547 173.4416 115.8356 C 174.2257 115.2386 172.617 111.7157 173.2395 111.3604 C 173.3853 111.2772 175.84 111.3827 177.0659 113.0863 C 177.8066 114.1156 176.5277 115.3738 177.7781 117.9113 C 178.3127 118.996 178.4207 118.3785 182.4179 118.2348 C 183.5755 118.769 183.4546 118.7118 184.622 119.7169 C 185.0603 119.6852 185.2892 119.6856 185.4216 119.565 C 185.5213 119.4742 186.2137 118.6415 184.1018 116.4619 C 182.1277 114.4245 180.6604 110.6521 176.4984 109.7653 C 173.5583 109.1388 175.1109 106.5663 175.6683 105.8981 C 177.5468 103.646 181.3502 103.6736 182.3219 103.7799 C 188.6075 104.4673 198.9921 109.3298 206.787 123.8042 C 211.8793 133.2601 210.6054 139.4626 207.6184 142.9645 C 205.8627 145.023 205.1385 145.0741 204.8387 145.8112 C 204.407 146.8727 202.9982 148.558 202.9449 148.5994 C 201.2573 149.9074 200.4432 145.6982 198.3719 142.4971 C 196.3026 139.2991 195.1324 138.5652 195.4708 137.3003 C 196.2906 134.2361 197.0685 135.3403 195.1345 133.3497 C 192.3374 130.4709 191.0706 130.506 190.8604 130.7215 C 190.6888 130.8976 190.8961 132.4438 190.8749 132.7711 C 190.8196 133.6271 190.3714 134.244 190.3745 134.3429 C 190.3914 134.882 191.8556 135.1332 192.2126 137.7283 C 192.9347 142.9788 191.2239 143.2022 194.5169 149.0171 C 194.7955 149.5091 195.4754 150.4338 200.9687 161.5948 C 200.9826 161.6232 201.6164 162.8997 201.6731 163.013 C 201.7512 163.1692 202.3011 164.2613 202.3274 164.3132 C 203.9247 167.4599 207.8391 171.6746 209.2418 172.0538 C 210.1423 172.2972 211.6306 174.9277 211.6928 175.0702 C 212.0292 175.8401 212.4557 180.9035 212.4542 181.0236 C 212.4429 181.9493 211.8389 185.1771 211.2436 184.6863 C 211.0934 184.5625 211.1451 181.598 210.9265 181.4583 C 210.8259 181.394 210.5655 181.5178 210.513 181.5613 C 210.3502 181.6967 210.2187 182.3623 209.5968 183.4699 C 209.3654 183.882 208.7971 184.45 208.6164 184.3428 C 208.2669 184.1357 209.0995 183.9482 208.7359 182.7849 C 208.4133 181.7531 209.5768 178.3657 208.3939 177.8825 C 208.0211 177.7303 206.1487 179.1551 205.6546 178.7598 C 205.0943 178.3116 206.9127 177.9341 207.0927 176.8488 C 207.208 176.1539 207.3114 174.1284 204.8457 174.1362 C 203.8117 174.1395 201.767 174.6801 201.8774 177.7799 C 201.9156 178.8549 202.0344 178.7371 202.334 179.2944 C 202.8579 180.269 202.5038 180.4961 202.6632 180.888 C 202.7705 181.1519 203.5262 181.6615 203.3109 181.8825 C 203.1445 182.0533 201.3536 181.8013 200.0428 179.6219 C 198.9958 177.8812 199.7766 177.8923 198.9388 176.4213 C 198.6647 175.9401 198.4926 175.7603 198.8472 175.0397 C 199.7436 173.218 199.2391 173.5278 199.522 172.5258 C 199.8572 171.339 200.7574 170.9469 198.9734 167.8146 C 197.7544 165.6744 195.694 163.7303 194.2874 161.7085 C 193.0995 160.001 193.4926 159.3226 191.9509 158.059 C 189.9117 156.3877 190.388 156.8978 189.1983 150.8091 C 189.1328 150.4737 188.6022 148.2086 187.1701 145.4862 C 186.6688 144.5332 185.0966 141.7231 184.6508 141.7737 C 184.3658 141.8061 183.9633 142.5247 183.7502 142.7167 C 183.345 143.0815 182.6277 143.2003 182.4725 143.3694 C 181.9674 143.9192 182.5972 146.5595 180.3602 146.4473 C 177.2692 146.2924 180.7984 146.5991 176.0726 146.7517 C 174.2592 146.8102 173.6578 148.1268 173.9781 149.0751 C 174.5632 150.8073 172.275 150.9505 172.0897 151.4667 C 171.855 152.1203 173.0612 151.9008 175.5928 157.4626 C 176.2605 158.9294 177.289 161.5944 177.826 163.2449 C 179.5868 168.6561 179.2676 170.5148 178.4912 171.3469 L 176.0536 171.3403 C 170.8308 171.3266 166.87 170.4697 165.6874 170.0541 C 160.2325 168.1373 157.8668 167.085 157.2477 167.705 C 157.0404 167.9126 157.1117 169.046 157.8588 170.5757 C 157.8735 170.6058 158.5188 171.8947 158.6109 172.0735 C 159.3103 173.431 165.9815 182.4747 168.9072 183.3512 C 176.729 185.6944 169.6275 183.532 176.1512 184.9714 C 176.413 185.0291 180.1623 185.1502 181.9807 188.2799 C 181.7211 188.777 181.6264 188.3723 180.2712 187.894 C 179.6593 187.678 177.1588 187.6444 177.0265 187.8677 C 176.9695 187.9639 177.1614 188.2123 177.0405 188.3757 C 176.684 188.8571 175.3991 187.8044 174.7455 188.5794 C 174.4404 188.9412 175.028 190.0244 174.887 190.1508 C 174.6617 190.3527 173.417 189.1252 172.026 189.1672 C 166.5114 189.3338 168.5773 189.1994 163.8036 187.6608 C 160.7008 186.6608 160.1575 186.1525 159.818 185.5126 C 159.5396 184.988 160.0195 184.2397 159.7097 182.8152 C 159.5888 182.2592 159.0778 181.0736 158.6342 179.425 C 158.0686 177.3231 156.8301 176.0131 154.3656 172.2233 C 149.4038 164.5931 151.8832 166.9562 150.4232 164.9487 C 149.123 163.1608 149.4412 162.4732 149.7629 161.9501 C 150.3559 160.986 151.8418 159.7986 152.3078 159.804 C 152.9706 159.8116 151.7561 160.1142 156.8866 161.0067 C 158.2784 161.2488 156.8939 160.9788 162.1514 162.3497 C 164.5905 162.9857 166.093 163.5063 166.2622 163.2159 C 166.5786 162.6731 163.782 160.3651 161.3985 157.0482 C 160.2052 155.3875 159.6751 153.5859 156.452 155.7559 C 154.9597 156.7606 153.3769 158.2131 149.7958 160.5057 C 144.1536 164.118 148.7317 160.3139 143.2448 165.7225 C 142.134 166.8175 140.5207 167.9764 138.8169 168.4476 C 134.7433 169.5742 133.7523 168.1605 130.3722 168.0706 C 130.1742 168.0653 130.009 168.0643 128.7216 168.0367 C 124.9922 167.9568 122.3362 166.9653 119.2189 170.4987 C 116.3857 173.7101 113.5675 180.0851 113.1564 181.5396 C 112.5709 183.6105 113.4083 186.6738 117.165 186.9396 C 117.8488 186.9879 119.6649 186.6921 122.7317 188.223 C 124.9658 189.3383 125.7941 190.4983 126.1026 191.1416 C 126.1429 191.2255 126.1388 191.3728 126.1388 191.6054 C 125.0125 191.6054 122.6949 190.0867 122.2327 190.644 C 121.8868 191.0612 122.8133 191.867 122.4152 192.1382 C 121.9487 192.4559 120.4283 190.7603 117.9929 190.5378 C 115.9449 190.3506 117.1147 191.918 116.24 192.1644 C 115.8356 192.2784 116.2254 191.7579 112.0376 192.1122 C 110.1783 192.2696 109.8046 191.9785 109.0403 190.9431 C 105.2105 185.7551 107.4032 189.5356 105.4922 185.2394 C 104.4009 182.7861 105.0027 184.4644 107.676 181.3332 C 108.4576 180.4178 110.5645 176.746 111.5464 174.8826 C 111.5605 174.8559 112.091 173.8368 112.2439 173.5414 Z M 128.413 163.4266 C 128.2125 163.3373 124.6994 163.025 122.9443 162.9609 C 122.9161 162.96 121.5903 162.9195 121.5339 162.918 C 119.4082 162.8592 119.5691 162.9336 119.4134 163.0784 C 119.7212 165.0901 122.648 164.8946 124.1742 164.8734 C 125.6693 164.8526 127.7421 164.9365 128.4437 163.8192 C 128.5077 163.4786 128.4329 163.478 128.413 163.4266 Z M 162.1151 163.5198 C 161.8965 163.3759 158.2376 162.482 157.9069 162.3705 C 157.7371 162.3132 153.6325 161.2614 153.5545 161.3054 C 153.4614 161.3581 153.1384 162.6263 155.4877 163.1552 C 158.6852 163.8751 160.5023 164.8885 162.2787 163.8682 C 162.1527 163.5127 162.1779 163.6166 162.1151 163.5198 Z M 137.2919 144.8578 C 137.3543 144.7603 138.3372 144.5062 140.1201 145.4666 C 140.6481 145.7509 142.5004 147.3749 142.8951 147.3112 C 143.3576 147.2365 143.6441 145.3915 143.6452 144.8189 C 143.6471 143.8271 143.0494 143.7606 142.9505 143.0425 C 142.9815 142.9297 143.0247 142.769 143.1228 142.7201 C 144.0117 142.2766 147.7685 144.023 147.9413 143.9249 C 148.2842 143.7303 149.2856 139.8004 149.4377 139.2288 C 150.0704 136.853 151.3776 136.745 151.7641 136.1717 C 151.85 135.2704 149.2244 131.5267 148.4011 129.4185 C 147.7417 127.7299 146.5465 127.103 146.799 125.9984 C 147.1414 124.5007 145.8319 124.4835 146.1873 122.2064 C 146.3546 121.1348 146.7677 120.4743 143.6551 118.4637 C 143.1259 118.1219 141.3807 117.1931 141.2209 116.9555 C 141.1559 116.8588 141.1691 116.5469 141.2107 116.47 C 141.2556 116.387 143.0975 114.4771 145.888 115.8577 C 148.1539 116.9788 151.8109 120.1024 151.9304 120.191 C 152.7814 120.8217 156.4349 121.6693 157.6102 121.731 C 159.8972 121.8513 163.5417 120.9506 164.2407 120.5448 C 164.2492 120.5309 164.3898 120.36 164.3662 120.1582 C 164.3376 119.9143 163.709 118.1697 160.8592 115.1182 C 159.6152 113.7862 156.1455 110.5398 154.4516 109.8673 C 152.1259 110.8355 150.8478 110.8177 150.6184 110.7617 C 147.7527 110.062 146.8986 110.5735 146.4065 110.8988 C 140.4843 110.8988 141.2296 111.999 138.5226 112.2732 C 134.5822 112.6722 130.5112 114.3342 130.2016 114.4853 C 130.0662 114.5514 126.5349 116.5975 124.4728 119.3855 C 121.5925 123.2797 121.9213 126.4533 121.9101 126.7656 C 121.9072 126.847 121.851 128.6795 121.8462 128.8016 C 121.5843 135.5637 121.6287 131.8793 123.2529 136.3618 C 124.2108 139.0054 122.6108 136.0933 125.9931 141.2725 C 127.4908 143.566 127.6111 142.7505 128.8945 143.8983 C 129.7707 144.6816 131.0271 146.7734 132.5491 146.559 C 133.5983 146.4113 133.0731 144.6296 133.3556 144.5042 C 133.4942 144.4427 134.088 144.8104 134.8905 145.6162 C 135.1154 145.8419 135.7196 146.4666 135.9038 146.6512 C 137.0621 147.8118 137.6433 147.8069 137.7294 147.8011 C 137.782 147.7976 137.9881 147.7397 138.0634 147.627 C 138.4151 147.1013 137.1679 145.0515 137.2919 144.8578 Z M 154.7301 127.3143 C 154.697 129.9518 154.5514 132.5312 156.2865 134.9145 C 157.1802 136.1421 156.7356 136.8602 157.8443 137.3845 C 159.4835 138.1593 159.6387 138.8074 159.9984 138.5521 C 160.5396 138.1681 159.5418 137.8735 160.6494 136.583 C 161.3634 135.751 160.9846 135.9168 160.8613 134.8273 C 160.7004 133.4054 161.3431 133.4363 160.9527 132.2736 C 160.6096 131.2521 160.6872 131.0657 157.4681 128.8315 C 156.536 128.1845 155.2862 127.3286 155.2352 127.3108 C 155.1398 127.2775 154.9619 127.2991 154.7301 127.3143 Z M 163.8301 127.425 C 163.8251 127.2349 162.6213 126.1491 161.8628 126.0903 C 161.7961 126.0851 158.8273 126.3253 158.5621 126.6264 C 158.7057 127.3332 162.2071 129.4186 163.3013 128.646 C 163.5189 128.28 163.8316 127.4782 163.8301 127.425 Z" fill-rule="evenodd" fill="#000000" fill-opacity="1" stroke="none" stroke-opacity="1" stroke-width="0" stroke-linecap="round" stroke-linejoin="round"/>
</defs>
<g>
<use xlink:href="#path_5565f1fd71098225d90241007d58f433"/>
</g>
</svg>