<?xml version="1.0" encoding="utf-8"?>
<!-- Generator: Adobe Illustrator 23.0.6, SVG Export Plug-In . SVG Version: 6.00 Build 0)  -->
<svg version="1.1" id="Слой_1" xmlns="http://www.w3.org/2000/svg" xmlns:xlink="http://www.w3.org/1999/xlink" x="0px" y="0px"
	 viewBox="0 0 864 864" enable-background="new 0 0 864 864" xml:space="preserve">
<g>
	<path d="M772.282,298.859c-0.215-4.962-3.117-4.28-5.783-2.362c-5.209,3.747-10.012,8.061-15.237,11.785
		c-9.261,6.602-15.415,5.564-22.118-3.59c-6.066-8.284-10.835-17.458-17.664-25.244c-3.673-4.187-2.596-8.607,1.639-11.693
		c5.174-3.769,10.691-7.09,16.197-10.375c6.914-4.125,13.057-8.075,3.657-16.039c-1.811-1.534-2.445-4.457-3.619-6.741
		c-15.711-30.551-30.285-61.698-48.372-90.997c-26.832-43.467-61.678-77.545-109.491-97.847
		c-24.319-10.326-51.534-10.908-74.867-23.915c-1.622-0.904-4.625-0.867-4.557,1.624c0.33,12.202-9.137,9.365-15.675,10.059
		c-4.194,0.446-10.855,1.285-12.129-3.142c-1.391-4.833,5.786-4.325,8.736-6.806c1.852-1.558,5.606-1.805,5.08-4.944
		c-0.516-3.073-4.084-2.497-6.397-3.002C460.243,13.134,449.995,8.367,439.444,0h-12.195c-13.638,9.673-27.112,13.829-42.342,17.349
		c5.689,3,10.012,5.04,14.068,7.517c2.078,1.269,4.945,3.475,1.985,6.032c-4.799,4.147-10.908,3.245-16.584,2.488
		c-4.599-0.614-10.896-0.574-11.531-6.562c-0.957-9.013-6.027-5.37-10.242-4.182c-4.937,1.391-8.211,6.116-13.607,6.926
		c-26.965,4.046-50.695,16.161-73.274,30.546c-46.564,29.666-87.325,65.525-116.818,112.891
		c-8.887,14.272-17.647,29.579-17.281,46.351c0.253,11.605-3.267,18.831-11.275,25.155c-4.599,3.633-3.326,6.355,0.374,9.048
		c4.405,3.206,9.022,6.123,13.573,9.126c13.583,8.965,13.955,11.989,2.536,23.186c-5.095,4.996-9.714,10.171-11.669,17.332
		c-3.852,14.109-8.343,15.567-20.736,7.057c-4.577-3.143-8.825-6.669-10.178-12.314c-0.695-2.899-1.6-4.932-4.906-4.484
		c-2.868,0.389-4.696,2.154-4.98,5.067c-0.495,5.08-0.56,10.21-1.234,15.262c-3.16,23.687-12.459,45.804-17.777,68.956
		c-15.14,65.912-18.657,132.801-17.54,200.133c0.108,6.519,2.603,7.853,8.214,6.269c1.844-0.521,3.779-0.772,5.689-0.995
		c13.278-1.549,16.037,0.816,16.923,13.983c0.387,5.759,0.908,11.53,1.8,17.228c0.718,4.588,4.128,9.234-0.503,13.468
		c-5.037,4.606-10.754,3.125-16.36,1.282c-2.43-0.799-4.732-1.979-7.141-2.854c-2.007-0.729-3.977-3.093-6.149-1.426
		c-2.346,1.801-0.493,4.207,0.294,6.148c14.737,36.375,23.719,74.636,36.644,111.604c12.581,35.983,29.091,69.768,54.279,99.073
		c1.869-2.957,0.197-5.177-0.579-7.485c-10.024-29.816-19.595-59.794-30.2-89.402c-11.893-33.205-15.654-68.141-23.092-102.291
		c-0.539-2.474-1.759-7.711,1.959-6.861c7.777,1.777,7.269-0.915,5.606-6.483c-1.037-3.472,1.403-5.389,4.631-5.991
		c11.856-2.21,23.418-2.969,32.516,8.082c1.554-15.565-2.139-30.351-0.351-45.424c17.282,83.055,44.968,161.346,100.973,228.81
		c0.909-5.106-1.166-7.386-2.401-9.861c-35.606-71.394-57.752-146.137-57.376-226.689c0.081-17.35-0.674-17.353-18.082-16.866
		c-16.418,0.46-21.704-4.756-20.951-20.996c0.402-8.659,1.408-17.297,1.605-25.956c0.131-5.74,2.786-7.039,7.902-6.58
		c10.233,0.918,20.488,1.863,30.75,2.086c6.475,0.141,7.844,3.48,8.562,8.957c2.294,17.51,4.399,35.082,7.679,52.421
		c12.898,68.19,38.957,130.858,79.938,187.085c1.986,2.724,3.352,6.335,9.701,7.562c-17.061-39.305-35.825-76.503-46.199-116.938
		c-10.511-40.967-16.001-82.512-16.821-124.769c-0.723-37.244,6.849-107.306,14.238-124.102c0,5.12,0.094,8.96-0.014,12.794
		c-1.217,43.113-0.112,86.087,7.475,128.691c6.993,39.266,18.76,76.698,42.081,109.679c2.373,3.356,4.184,7.496,9.91,9.875
		c-4.382-17.423-11.677-32.117-17.034-47.482c-2.964-8.501-5.822-17.011-6.756-26.029c-0.298-2.874-1.096-6.481,2.01-7.772
		c2.916-1.213,5.331,1.536,7.321,3.634c5.334,5.627,9.679,11.991,13.503,18.712c8.259,14.514,16.38,29.108,24.803,43.525
		c2.001,3.425,3.34,7.744,8.161,9.262c1.445-3.947-0.884-6.995-1.955-10.168c-2.132-6.32-1.09-12.052,4.851-15.026
		c9.664-4.837,5.33-7.217-0.785-10.8c-13.252-7.764-18.267-17.644-15.868-31.106c2.014-11.3,7.698-21.03,14.322-30.231
		c3.107-4.316,6.714-4.424,10.683-1.201c7.725,6.273,15.538,12.441,23.148,18.85c5.737,4.831,9.684,9.94,0.835,15.821
		c-1.652,1.098-4.3,3.079-2.704,5.448c1.813,2.69,4.784,1.173,6.906-0.093c2.159-1.288,4.241-2.993,5.798-4.958
		c12.853-16.207,23.946-33.41,29.37-53.686c0.814-3.042,1.019-7.858,4.885-6.953c4.86,1.138,2.304,5.892,1.342,8.837
		c-7.829,23.965-17.14,47.128-36.729,64.431c-1.44,1.272-4.037,2.397-2.507,5.35c0.999,0,1.958,0.131,2.87-0.022
		c4.24-0.715,9.08-3.945,12.288,1.141c2.667,4.228,2.053,9.4,0.554,14.008c-1.776,5.46-6.804,4.918-11.298,5.201
		c-5.464,0.344-10.988-1.528-17.253,0.237c7.595,2.159,14.452,3.754,21.058,6.065c11.446,4.004,22.294,8.892,25.055,22.672
		c0.752,3.751,4.021,4.958,7.182,5.553c11.443,2.15,22.976,2.473,34.523,0.846c4.546-0.641,7.579-3.424,6.005-7.921
		c-2.625-7.501-0.313-10.329,7.183-12.298c5.108-1.342,9.986-6.14,9.788-11.996c-0.228-6.733-6.255-3.079-9.831-3.573
		c-3.16-0.437-4.516-2.421-4.695-5.175c-0.191-2.956,1.53-4.549,4.464-5.305c11.621-2.995,14.608-7.752,12.566-19.434
		c-1.249-7.146-5.281-13.023-8.521-19.286c-7.251-14.021-13.29-28.509-15.878-44.208c-0.344-2.088-1.184-5.025,2.099-5.328
		c2.021-0.187,3.082,2.044,3.53,4.014c0.355,1.563,0.375,3.215,0.831,4.742c6.172,20.644,16.226,39.096,31.64,54.299
		c2.523,2.488,7.071,6.083,10.026,2.555c3.125-3.731-2.011-6.052-4.739-7.699c-5.973-3.607-3.906-6.286,0.52-8.963
		c9.084-5.495,18.032-10.867,23.42-20.813c2.915-5.38,7.639-5.183,11.65-0.179c6.189,7.721,9.069,16.698,11.263,26.255
		c4.864,21.192-10.598,38.721-9.948,59.046c0.009,0.298-0.18,0.616-0.321,0.903c-2.311,4.713-4.628,9.423-7.16,14.571
		c5.911,0.75,7.763-3.27,9.803-6.087c5.078-7.015,9.8-14.309,14.309-21.708c8.682-14.248,15.489-29.632,25.788-42.895
		c2.859-3.682,5.833-10.248,10.618-8.058c5.255,2.405,2.184,9.13,1.262,13.876c-2.95,15.203-8.584,29.552-14.548,43.784
		c-3.173,7.57-6.567,15.114-7.469,24.611c8.563-3.678,12.32-10.372,15.997-16.852c11.067-19.498,16.604-40.983,21.694-62.573
		c12.041-51.067,17.508-103.168,24.328-155.06c1.131-8.608,0.704-17.685,6.535-28.175c19.1,130.153,3.826,251.863-59.681,365.919
		c11.917-13.75,24.434-26.749,33.756-42.201c34.379-56.986,53.076-119.354,63.46-184.644c1.497-9.412-1.736-21.298,5.117-27.7
		c6.713-6.271,18.414-3.703,27.881-5.206c16.183-2.569,16.361-2.174,17.275,14.65c0.329,6.067,0.415,12.216-0.176,18.251
		c-1.367,13.951-7.875,19.823-21.539,21.349c-4.77,0.533-11.027-4.112-14.083,1.975c-2.199,4.382-2.067,9.97-2.78,15.047
		c-0.31,2.211-0.182,4.491-0.168,6.74c0.438,69.747-16.282,135.439-46.75,197.884c-1.596,3.271-3.152,6.563-4.726,9.845
		c0.853,0.39,1.707,0.779,2.56,1.169c35.656-55.53,67.495-113.02,88.498-176.427c-4.27,74.182-15.343,146.15-56.592,210.152
		c2.041-0.497,3.118-1.247,3.866-2.245c23.734-31.668,45.762-64.437,63.372-99.969c5.547-11.192,11.383-22.428,12.145-35.289
		c0.355-5.985-0.398-11.152-8.72-10.097c-9.242,1.171-12.662-4.297-13.272-12.533c-0.84-11.345,0.684-22.485,3.394-33.43
		c2.216-8.952,8.03-12.463,17.279-11.259c10.314,1.342,19.734,11.455,20.404,22.398c1.144,18.678,0.067,37.228-3.75,55.596
		c-6.964,33.506-19.104,65.269-32.314,96.685c-4.862,11.564-9.534,23.209-14.292,34.817c1.843-0.196,2.637-0.8,3.125-1.591
		c4.893-7.926,9.899-15.788,14.565-23.847c29.465-50.884,59.991-101.267,68.216-161.232c2.1-15.311,3.02-15.185-11.46-14.035
		c-9.825,0.78-16.192-3.714-13.832-10.805c2.96-8.894,2.862-17.59,2.165-26.598c-0.552-7.133,2.942-10.994,10.278-10.614
		c5.119,0.266,10.264,0.614,15.312,1.445c4.291,0.707,6.024-0.766,5.98-4.947c-0.034-3.213,0.152-6.428,0.107-9.641
		c-0.898-65.097-10.176-129.273-20.983-193.305C780.752,353.967,773.496,326.888,772.282,298.859z M93.118,561.031v-33.829
		C96.627,540.159,96.13,550.594,93.118,561.031z M405.092,74.772c2.139-0.423,4.799-0.955,5.226-3.552
		c0.468-2.846-2.497-3.275-4.194-4.548c-2.482-1.862-6.971-2.777-6.365-6.402c0.672-4.027,5.412-3.881,8.663-4.742
		c16.187-4.284,32.427-3.872,48.622,0.027c2.389,0.575,5.528,0.568,6.419,3.377c0.828,2.609-1.807,3.842-3.475,5.24
		c-2.776,2.326-5.742,4.687-4.133,8.812c1.502,3.85,5.378,4.538,8.836,4.808c5.749,0.449,11.547,0.28,17.324,0.359
		c11.807,0.163,15.808,4.009,16.02,15.411c0.251,13.493,0.251,13.493,13.62,14.566c11.01,0.883,17.278,9.451,16.111,23.101
		c-0.571,6.679-2.098,13.316-3.67,19.858c-1.193,4.963,0.084,7.42,5.349,7.359c0.638-0.008,1.281,0.195,1.917,0.174
		c19.923-0.674,22.163-1.104,23.658,24.88c0.608,10.574,1.332,21.142,2.003,31.713c0.081,1.282,0.648,2.793,0.169,3.811
		c-3.845,8.169-7.25,15.69,7.015,16.483c2.833,0.158,2.398,3.821,1.089,6.442c-4.088,8.189-15.597,12.503-23.774,8.388
		c-2.749-1.383-5.033-3.209-7.54-0.184c-12.266,14.803-22.236,30.915-29.73,50.981c14.49-6.495,26.97-12.061,41.241-12.976
		c-21.352,13.833-37.344,34.599-60.495,45.841c-14.701,7.139-23.751,2.296-28.045-13.649c-1.132-4.204-1.188-10.548-7.278-9.029
		c-5.782,1.442-6.207,7.543-5.26,12.95c4.354,24.871,27.89,39.18,54.896,33.571c12.161-2.526,22.852-8.206,33.345-14.543
		c6.857-4.142,13.967-7.886,21.103-11.537c2.727-1.395,5.995-3.603,8.898-0.864c2.633,2.484,0.308,5.449-0.559,8.049
		c-8.788,26.353-20.846,35.004-51.611,36.512c-20.1,0.985-39.956,0.033-57.511-11.641c-20.051-13.334-37.998-4.937-55.772,5.228
		c-3.715,2.125-3.44,4.74,0.585,5.832c9.189,2.495,17.44,4.667,22.24-6.117c2.106-4.732,5.586-8.814,11.063-7.108
		c5.619,1.749,13.599,0.953,14.761,9.791c0.791,6.019,5.031,6.885,9.922,6.356c5.136-0.555,10.252-1.199,15.249,0.616
		c2.15,0.781,4.529,2.108,4.341,4.56c-0.256,3.327-3.378,2.081-5.374,2.243c-3.683,0.298-7.684-0.574-11.263,4.221
		c5.555,0.561,11.252-1.52,11.769,5.308c0.571,7.534-3.663,12.886-9.51,16.734c-2.86,1.882-3.895-0.942-3.989-3.36
		c-0.28-7.189-5.365-9.016-11.064-9.717c-8.617-1.06-17.307-1.228-25.942-0.226c-6.314,0.733-12.021,2.676-13.867,9.886
		c-1.321,5.159-3.514,4.095-6.499,1.115c-8.733-8.717-7.868-16.983,5.33-22.557c-14.645-1.834-24.127-11.134-37.063-10.941
		c-14.99,0.224-29.047-4.093-43.248-8.394c-16.489-4.994-19.897-18.93-23.455-32.446c-1.648-6.263,3.902-4.102,6.782-2.712
		c12.715,6.141,25.388,12.382,37.92,18.887c17.671,9.173,35.728,9.249,54.143,2.866c11.844-4.105,21.786-28.904,16.2-40.06
		c-1.957-3.908-4.043-3.413-6.39-0.414c-2.123,2.714-1.948,6.034-2.483,9.17c-2.149,12.593-8.28,16.938-20.899,15.165
		c-8.02-1.126-14.461-5.253-20.264-10.409c-16.028-14.239-31.936-28.608-52.298-41.669c19.73-2.227,30.662,12.455,46.129,16.797
		c0.324-6.719-3.709-11.176-6.046-16.064c-4.293-8.98-9.142-17.72-15.615-25.376c-5.845-6.914-10.922-15.574-22.561-9.239
		c-2.038,1.109-5.735-0.012-8.353-0.965c-4.59-1.671-7.759-5.358-7.147-10.289c0.812-6.542,6.941-6.548,12.875-7.914
		c-1.715-3.283-3.167-6.287-4.813-9.18c-13.529-23.786-5.335-49.425,20.578-61.32c7.851-3.604,10.341-6.126,5.424-14.29
		c-4.073-6.762-2.66-14.49,2.438-20.769c6.439-7.93,12.454-16.431,22.371-20.629c4.425-1.873,4.229-6.175,4.849-9.799
		c2.187-12.769,4.672-15.354,17.43-17.528C389.354,77.755,397.237,76.327,405.092,74.772z M546.263,471.339
		c1.999,6.682,4.607,13.224,3.871,20.595c-16.872-22.588-28.67-47.062-28.131-75.817c0.176-9.402,4.908-17.188,13.519-22.014
		c1.431-0.802,2.948-1.665,4.461-0.621c1.507,1.041,1.629,2.84,0.873,4.323C527.78,423.425,539.052,447.231,546.263,471.339z
		 M516.213,421.096c-0.679,3.742,0.128,9.063-4.546,9.505c-3.907,0.37-4.511-4.778-5.618-7.964
		c-1.679-4.833-3.478-9.888,0.461-14.56c1.122-1.331,2.981-1.659,4.404-0.7C515.848,410.704,515.483,416.152,516.213,421.096z
		 M448.05,427.609c-2.152,0.831-3.772-0.853-4.632-2.498c-2.194-4.195-3.544-8.598-1.256-14.204
		c4.057,3.616,5.824,7.564,7.083,11.765C449.774,424.441,450.405,426.701,448.05,427.609z M414.882,428.889
		c-1.528,1.039-3.573,0.157-3.309-1.711c0.913-6.454,4.634-11.148,10.562-16.058C422.611,419.501,420.536,425.044,414.882,428.889z
		 M359.801,413.861c-2.645,7.101-5.206,14.295-11.538,22.537c-0.733-10.718-1.62-18.895,3.841-26.044
		c1.761-2.305,4.3-4.758,7.257-3.325C362.334,408.471,360.612,411.685,359.801,413.861z M322.124,396.083
		c11.197,4.419,17.491,12.433,18.729,24.183c1.105,10.477-1.678,20.321-5.184,30c-4.805,13.266-10.76,26.015-18.064,38.085
		c-1.519,2.511-2.878,7.296-6.424,5.82c-4.146-1.726-0.72-5.607,0.234-8.23c2.729-7.504,5.975-14.817,8.895-22.254
		c2.802-7.139,5.721-14.249,8.109-21.529C333.725,425.98,332.336,410.618,322.124,396.083z M152.671,362.033
		c-6.725-1.101-14.697-4.278-20.433-11.301c-3.265-3.997-4.104-8.947-0.465-13.253c5.378-6.362,7.873-13.768,9.327-21.759
		c0.511-2.808,1.434-5.607,2.599-8.219c4.393-9.852,8.594-10.183,17.224-4.052c12.007,8.53,16.724,17.981,9.496,32.159
		c-2.989,5.862-3.667,12.874-5.664,19.279C163.276,359.636,160.05,362.438,152.671,362.033z M253.319,343.448
		c-4.819,7.187-4,15.306-5.19,23.136c-0.991,6.522-5.645,9.871-11.674,11.274c-10.199,2.373-19.784,0.473-28.431-5.301
		c-7.804-5.211-11.108-4.338-13.992,4.825c-1.237,3.932-1.609,8.136-2.153,11.038c0.309,2.851,0.463,4.447,0.657,6.037
		c1.567,12.876-2.845,16.598-15.614,13.162c-15.055-4.052-19.516-13.368-13.491-27.439c2.008-4.689,3.187-9.732,4.745-14.613
		c3.612-11.322,10.242-15.326,21.776-13.15c21.924,4.136,22.884,3.583,30.851-17.782c4.584-12.292,4.559-12.234,16.858-7.119
		c4.806,1.999,9.203,4.579,12.819,8.295C252.501,337.887,254.988,340.959,253.319,343.448z M276.591,547.509
		c-5.068-7.762-5.97-16.374-6.915-24.9c-2.328-21.014-3.765-42.09-1.354-63.19c0.665-5.814,0.639-14.733,7.075-14.935
		c4.55-0.143,3.684,9.289,3.979,14.293C281.118,488.384,279.421,517.942,276.591,547.509z M267.012,126.771
		c-3.719,11.31-8.68,21.805-17.401,30.58c-4.576,4.604-10.318,11.378-0.179,17.32c0.985,0.577,1.372,2.9,1.331,4.394
		c-0.525,19.295,8.116,35.381,17.881,51.019c2.896,4.639,4.631,7.777-0.094,13.24c-5.498,6.357-3.802,13.826,3.52,19.09
		c2.025,1.456,5.265,3.038,3.014,5.835c-2.378,2.955-5.411,0.891-7.412-1.292c-9.001-9.824-12.615-22.336-15.881-34.683
		c-2.556-9.663-5.599-18.688-10.739-27.452c-14.79-25.217-9.454-50.741,0.907-75.905c19.246-46.744,53.58-75.682,102.783-87.305
		c11.319-2.674,21.516-2.64,30.395,6.775c-20.12,8.983-41.678,12.114-61.149,21.281c-6.126,2.884-13.993,5.526-9.705,15.462
		c1.211,2.805-1.402,3.939-3.135,5.217c-4.91,3.62-9.876,7.164-14.84,10.712C277.163,107.596,270.573,115.941,267.012,126.771z
		 M307.76,371.477c6.108,1.171,8.749,4.023,5.271,9.98c-4.841,8.291-11.901,15.056-15.847,24.073
		c-1.879,4.293-6.183,2.473-9.077,0.225c-4.104-3.189-5.277-7.873-5.346-12.878C282.562,379.545,294.937,369.019,307.76,371.477z
		 M299.221,582.259c-9.345-0.109-16.193-6.82-15.836-15.52c0.557-13.584,9.811-30.756,16.459-30.541
		c6.023,0.194,23.077,11.89,22.863,15.679C321.857,566.92,309.903,582.384,299.221,582.259z M326.195,525.094
		c-1.164,2.159-3.255,3.965-5.257,5.487c-2.522,1.918-5.415,4.054-8.701,1.643c-3.329-2.443-3.446-5.905-2.12-9.52
		c3.897-10.623,9.982-20.091,16.015-29.536c5.106-7.993,9.531-16.615,19.695-24.506
		C341.579,490.087,335.352,508.108,326.195,525.094z M403.016,635.202c-3.396-1.033-4.328-4.45-4.357-7.846
		c-0.02-2.393,0.631-5.136,3.359-4.886c5.166,0.472,3.218,5.36,4.401,8.202C405.87,632.818,406.415,636.237,403.016,635.202z
		 M419.646,641.822c-4.027-0.246-5.211-3.085-5.765-5.83c-0.691-3.425,0.525-6.885,4.346-7.23c3.623-0.328,4.295,3.243,4.757,6.089
		C423.492,637.977,422.279,640.39,419.646,641.822z M428.452,591.017c-0.943,7.989-2.315,15.868-5.72,23.242
		c-0.779,1.688-1.511,3.845-3.879,3.402c-1.868-0.35-1.983-2.417-2.129-3.919c-0.514-5.308-0.828-10.635-1.372-18.071
		c-3.987,6.06-5.213,11.356-9.751,14.34c-1.595,1.049-3.099,2.532-5.098,0.885c-1.485-1.223-1.524-3.021-0.599-4.338
		c4.532-6.45,5.426-14.372,8.807-21.241c2.678-5.439,7.48-8.265,13.498-6.669C428.396,580.289,429.106,585.471,428.452,591.017z
		 M450.119,634.146c-0.365,2.609-1.73,5.186-4.728,5.177c-3.216-0.009-4.144-2.571-3.913-5.399c0.226-2.776,1.556-4.794,4.422-5.329
		C448.971,629.326,450.523,631.258,450.119,634.146z M450.71,582.969c6.459,7.441,10.163,16.191,11.035,26.072
		c0.166,1.883,0.835,4.241-1.544,4.903c-2.133,0.594-3.321-1.54-4.312-3.096c-1.987-3.119-3.772-6.367-6.091-10.332
		c-1.101,5.616-1.924,10.276-2.962,14.889c-0.442,1.963-1.731,3.513-3.904,3.716c-2.128,0.198-3.841-0.877-4.532-2.831
		c-3.679-10.404-6.612-20.952-0.936-31.552C441.362,577.46,445.46,576.921,450.71,582.969z M520.687,514.785
		c-7.511-2.055-11.787-7.884-16.803-12.375c-6.064-5.428-11.639-6.091-17.8-0.498c-4.278,3.884-9.259,7.12-12.995,11.449
		c-8.439,9.78-19.661,11.574-30.772,9.169c-10.943-2.369-21.65-2.264-32.482-1.745c-9.798,0.469-17.619-2.543-23.532-10.386
		c-0.193-0.256-0.396-0.507-0.614-0.742c-15.11-16.222-15.062-16.162-31.916-2.631c-2.904,2.331-5.526,5.376-10.466,6.147
		c3.682-14.83,23.736-32.982,36.921-34.495c7.883-0.905,4.166,6.393,7.193,9.617c6.511-4.492,6.565-10.865,3.732-16.736
		c-3.972-8.228-3.074-15.248,1.85-22.549c3.257-4.829,3.854-10.777,5.185-17.598c6.211,5.879,5.81,13.398,8.635,19.417
		c2.467,5.256,3.947,11.826,9.747,2.085c3.541-5.948,7.049-3.918,9.925,1.062c1.54,2.667,1.275,6.428,4.703,7.994
		c5.862-2.846,1.217-11.712,7.279-13.589c7.522-2.328,6.892,6.912,10.704,9.444c2.574-0.261,2.831-2.088,3.607-3.354
		c2.95-4.813,5.033-11.781,12.584-8.815c7.157,2.811,10.869,8.834,9.823,16.938c-0.698,5.404-1.86,10.759-2.339,16.178
		c-0.302,3.421-0.354,7.169,4.136,9.542c3.092-2.624-0.08-9.329,4.956-9.98c4.529-0.585,8.427,2.703,12.331,4.831
		c9.48,5.168,16.977,12.609,23.282,21.27C519.572,507.201,521.892,510.018,520.687,514.785z M517.983,471.721
		c4.638-0.663,5.948,1.441,7.245,3.108c11.038,14.186,21.129,28.976,28.139,45.644c1.771,4.21,3.649,9.094-1.247,12.052
		c-4.604,2.781-7.782-1.461-10.409-4.482C527.639,511.86,522.547,492.135,517.983,471.721z M570.394,580.556
		c-5.763,3.195-11.504,3.465-17.11-0.496c-7.064-4.992-13.339-21.954-11.272-30.252c0.823-3.306,3.14-4.584,6.131-5.185
		c4.457-0.894,8.761-2.204,11.576-6.079c3.636-5.004,6.677-3.758,9.496,0.679c5.518,8.689,10.097,17.743,10.601,29.028
		C580.498,574.663,575.526,577.711,570.394,580.556z M577.29,401.827c-3.351,5.638-7.517,6.779-12.387,2.138
		c-7.539-7.185-12.546-16.405-15.925-25.827c-2.533-7.062,5.353-5.531,9.057-6.648c8.882,0.644,15.865,4.033,20.356,11.378
		C582.316,389.289,580.956,395.657,577.29,401.827z M586.955,543.183c-2.227-26.842-2.103-53.356,4.146-79.514
		C598.035,490.663,594.745,517.134,586.955,543.183z M592.063,269.324c-0.469-4.868,1.915-7.348,3.004-10.251
		c1.634-4.358,3.297-10.147,0.598-12.974c-8.087-8.469-1.829-14.998,1.304-22.179c7.956-18.235,16.029-36.437,18.442-56.48
		c1.065-8.842-0.035-16.107-9.615-20.68c-7.223-3.448-9.485-11.35-9.18-18.973c0.524-13.086-5.585-22.378-16.003-28.755
		c-10.524-6.443-19.397-14.698-28.448-22.841c-8.148-7.33-17.067-13.548-26.563-19.011c-9.4-5.409-19.615-8.594-30.564-10.834
		c2.642-4.484,6.501-4.251,9.752-4.407c19.085-0.914,37.002,2.711,52.6,14.547c2.555,1.939,4.813,4.621,7.683,5.734
		c20.018,7.763,31.209,23.133,39.267,42.276c4.819,11.448,12.145,21.844,18.383,32.69c8.772,15.252,10.715,31.277,6.061,48.276
		c-3.487,12.735-8.209,24.972-13.59,36.995c-4.694,10.489-10.709,20.359-13.087,31.913
		C600.985,259.83,598.12,265.127,592.063,269.324z M697.244,400.176c-5.955,5.394-12.886,8.611-20.998,7.932
		c-6.232-0.522-10.132-2.868-5.139-9.811c3.191-4.437,5.795-9.302,7.142-14.637c2.06-8.16-1.069-12.26-9.496-12.702
		c-5.906-0.31-11.342,0.956-16.484,4.204c-6.053,3.824-12.777,5.984-20.091,5.745c-10.891,0.002-13.929-2.791-15.243-14.051
		c-0.887-7.597-0.602-15.52-6.582-21.612c-0.752-0.767-1.19-2.326-1.04-3.417c0.864-6.277,18.73-18.092,25.176-16.998
		c4.049,0.687,4.742,3.489,5.49,6.815c4.742,21.1,11.056,25.301,32.57,21.942c12.898-2.014,16.072-0.169,21.305,12.124
		c2.008,4.717,3.353,10.071,6.518,13.87C707.483,388.116,703.859,394.185,697.244,400.176z M731.697,350.838
		c-7.305,6.131-15.747,9.692-24.341,10.782c-3.887,0.08-6.508-0.349-8.069-3.531c-4.791-9.767-10.296-19.253-12.283-30.128
		c-1.207-6.602-0.408-12.447,7.83-13.703c5.27-0.803,7.178-4.913,9.265-8.876c3.253-6.178,7.483-7.762,11.081-0.948
		c6.708,12.704,12.64,25.819,18.841,38.788C735.528,346.377,734.041,348.87,731.697,350.838z"/>
	<path d="M212.153,864c-12.464-10.792-21.848-22.458-30.609-34.582c-29.235-40.462-49.267-85.386-63.693-132.96
		c-4.075-13.44-3.325-14.613,10.107-14.069c8.702,0.352,15.952-1.164,19.108-10.396c4.02,1.423,3.004,4.495,3.025,6.665
		c0.382,38.027,11.591,73.178,27.938,107.041c10.449,21.646,20.688,43.396,30.862,65.173
		C210.568,854.458,212.855,858.094,212.153,864z"/>
	<path d="M85.388,287.04c5.926-11.27,15.336-18.663,26.898-23.66C106.221,274.495,98.139,283.367,85.388,287.04z"/>
	<path d="M752.911,271.914c1.286-0.953,1.628-1.324,1.732-1.267c5.38,2.984,9.223,7.231,10.578,13.367
		c0.063,0.283-1.574,1.445-1.992,1.256C757.534,282.691,756.496,276.699,752.911,271.914z"/>
	<path d="M416.978,202.522c0.508-9.476-0.652-18.314-3.993-26.988c-1.26-3.271,0.842-6.415,4.648-7.045
		c4.433-0.734,6.567,2.104,7.026,6.007C425.846,184.591,423.642,193.957,416.978,202.522z"/>
	<path d="M451.056,180.748c-1.097,4.796,0.993,14.809-5.177,14.531c-8.262-0.371-5.253-10.358-5.961-16.575
		c-0.14-1.233,0.028-2.577,0.376-3.775c0.964-3.311,1.572-7.633,6.212-7.013c4.347,0.581,4.726,4.504,4.559,8.216
		C451.008,177.401,451.056,178.675,451.056,180.748z"/>
	<path d="M478.446,108.295c0.333-3.66-0.76-10.903,4.636-10.838c4.918,0.059,4.407,7.344,4.64,12.039
		c0.047,0.948,0.05,1.913-0.076,2.851c-0.456,3.399-0.366,8.157-4.747,8.004c-4.192-0.146-4.284-4.75-4.447-8.282
		C478.409,111.12,478.446,110.166,478.446,108.295z"/>
	<path d="M397.198,142.903c-0.437,2.525-0.411,6.84-3.224,5.733c-5.421-2.133-6.153-8.272-7.451-13.379
		c-0.577-2.269,0.371-5.013,3.383-4.219C395.93,132.625,396.503,137.973,397.198,142.903z"/>
	<path d="M386.581,104.468c-1.46,4.347-2.423,9.413-7.347,10.32c-3.444,0.635-3.297-3.288-2.806-5.64
		c0.964-4.617,2.179-9.989,7.619-10.664C387.286,98.083,386.165,102.25,386.581,104.468z"/>
	<path d="M431.294,498.791c-4.864-10.052-14.389-12.371-22.155-17.187c-2.899-1.798-7.289-3.997-5.674-7.847
		c1.894-4.514,5.973-1.285,9.056-0.32c10.577,3.308,21.4,3.826,32.365,3.196c3.412-0.196,6.844-0.031,10.768,0.966
		C446.343,483.076,436.181,487.189,431.294,498.791z"/>
</g>
</svg>
